<mxfile host="app.diagrams.net" agent="Mozilla/5.0 (Windows NT 10.0; Win64; x64) AppleWebKit/537.36 (KHTML, like Gecko) Chrome/136.0.0.0 Safari/537.36 Edg/136.0.0.0" version="27.0.5">
  <diagram name="Trang-1" id="wZXBydSlz8X2rav5eI3Y">
    <mxGraphModel dx="1736" dy="996" grid="1" gridSize="10" guides="1" tooltips="1" connect="1" arrows="1" fold="1" page="1" pageScale="1" pageWidth="1654" pageHeight="2336" math="0" shadow="0">
      <root>
        <mxCell id="0" />
        <mxCell id="1" parent="0" />
        <mxCell id="9Zsvd8ydGd5WaW7-rN7S-24" style="edgeStyle=orthogonalEdgeStyle;rounded=0;orthogonalLoop=1;jettySize=auto;html=1;entryX=0.5;entryY=0;entryDx=0;entryDy=0;" edge="1" parent="1" source="9Zsvd8ydGd5WaW7-rN7S-2" target="9Zsvd8ydGd5WaW7-rN7S-3">
          <mxGeometry relative="1" as="geometry" />
        </mxCell>
        <mxCell id="9Zsvd8ydGd5WaW7-rN7S-33" value="User Browser" style="edgeLabel;html=1;align=center;verticalAlign=middle;resizable=0;points=[];" vertex="1" connectable="0" parent="9Zsvd8ydGd5WaW7-rN7S-24">
          <mxGeometry x="-0.4815" y="-2" relative="1" as="geometry">
            <mxPoint as="offset" />
          </mxGeometry>
        </mxCell>
        <mxCell id="9Zsvd8ydGd5WaW7-rN7S-2" value="" style="sketch=0;outlineConnect=0;fontColor=#232F3E;gradientColor=none;fillColor=#232F3D;strokeColor=none;dashed=0;verticalLabelPosition=bottom;verticalAlign=top;align=center;html=1;fontSize=12;fontStyle=0;aspect=fixed;pointerEvents=1;shape=mxgraph.aws4.user;" vertex="1" parent="1">
          <mxGeometry x="450" y="10" width="78" height="78" as="geometry" />
        </mxCell>
        <mxCell id="9Zsvd8ydGd5WaW7-rN7S-9" style="edgeStyle=orthogonalEdgeStyle;rounded=0;orthogonalLoop=1;jettySize=auto;html=1;entryX=0.5;entryY=0;entryDx=0;entryDy=0;" edge="1" parent="1" source="9Zsvd8ydGd5WaW7-rN7S-3" target="9Zsvd8ydGd5WaW7-rN7S-8">
          <mxGeometry relative="1" as="geometry" />
        </mxCell>
        <mxCell id="9Zsvd8ydGd5WaW7-rN7S-11" style="edgeStyle=orthogonalEdgeStyle;rounded=0;orthogonalLoop=1;jettySize=auto;html=1;" edge="1" parent="1" source="9Zsvd8ydGd5WaW7-rN7S-3" target="9Zsvd8ydGd5WaW7-rN7S-7">
          <mxGeometry relative="1" as="geometry">
            <Array as="points">
              <mxPoint x="489" y="340" />
              <mxPoint x="320" y="340" />
            </Array>
          </mxGeometry>
        </mxCell>
        <mxCell id="9Zsvd8ydGd5WaW7-rN7S-12" style="edgeStyle=orthogonalEdgeStyle;rounded=0;orthogonalLoop=1;jettySize=auto;html=1;entryX=0.5;entryY=0;entryDx=0;entryDy=0;" edge="1" parent="1" source="9Zsvd8ydGd5WaW7-rN7S-3" target="9Zsvd8ydGd5WaW7-rN7S-5">
          <mxGeometry relative="1" as="geometry">
            <Array as="points">
              <mxPoint x="489" y="340" />
              <mxPoint x="160" y="340" />
            </Array>
          </mxGeometry>
        </mxCell>
        <mxCell id="9Zsvd8ydGd5WaW7-rN7S-25" style="edgeStyle=orthogonalEdgeStyle;rounded=0;orthogonalLoop=1;jettySize=auto;html=1;" edge="1" parent="1" source="9Zsvd8ydGd5WaW7-rN7S-3" target="9Zsvd8ydGd5WaW7-rN7S-4">
          <mxGeometry relative="1" as="geometry" />
        </mxCell>
        <mxCell id="9Zsvd8ydGd5WaW7-rN7S-3" value="FrontEnd Serive&lt;br&gt;HomePage Form" style="rounded=1;whiteSpace=wrap;html=1;" vertex="1" parent="1">
          <mxGeometry x="429" y="160" width="120" height="60" as="geometry" />
        </mxCell>
        <mxCell id="9Zsvd8ydGd5WaW7-rN7S-4" value="Login" style="rounded=1;whiteSpace=wrap;html=1;" vertex="1" parent="1">
          <mxGeometry x="867.5" y="160" width="120" height="60" as="geometry" />
        </mxCell>
        <mxCell id="9Zsvd8ydGd5WaW7-rN7S-5" value="News Form" style="rounded=1;whiteSpace=wrap;html=1;" vertex="1" parent="1">
          <mxGeometry x="100" y="370" width="120" height="60" as="geometry" />
        </mxCell>
        <mxCell id="9Zsvd8ydGd5WaW7-rN7S-6" value="About us Form" style="rounded=1;whiteSpace=wrap;html=1;" vertex="1" parent="1">
          <mxGeometry x="420" y="390" width="120" height="60" as="geometry" />
        </mxCell>
        <mxCell id="9Zsvd8ydGd5WaW7-rN7S-16" style="edgeStyle=orthogonalEdgeStyle;rounded=0;orthogonalLoop=1;jettySize=auto;html=1;entryX=0.5;entryY=0;entryDx=0;entryDy=0;dashed=1;dashPattern=8 8;" edge="1" parent="1" source="9Zsvd8ydGd5WaW7-rN7S-7" target="9Zsvd8ydGd5WaW7-rN7S-14">
          <mxGeometry relative="1" as="geometry" />
        </mxCell>
        <mxCell id="9Zsvd8ydGd5WaW7-rN7S-17" style="edgeStyle=orthogonalEdgeStyle;rounded=0;orthogonalLoop=1;jettySize=auto;html=1;entryX=0.5;entryY=0;entryDx=0;entryDy=0;dashed=1;dashPattern=8 8;" edge="1" parent="1" source="9Zsvd8ydGd5WaW7-rN7S-7" target="9Zsvd8ydGd5WaW7-rN7S-15">
          <mxGeometry relative="1" as="geometry" />
        </mxCell>
        <mxCell id="9Zsvd8ydGd5WaW7-rN7S-7" value="Resturant Form" style="rounded=1;whiteSpace=wrap;html=1;" vertex="1" parent="1">
          <mxGeometry x="260" y="500" width="120" height="60" as="geometry" />
        </mxCell>
        <mxCell id="9Zsvd8ydGd5WaW7-rN7S-19" style="edgeStyle=orthogonalEdgeStyle;rounded=0;orthogonalLoop=1;jettySize=auto;html=1;entryX=0;entryY=0.75;entryDx=0;entryDy=0;" edge="1" parent="1" source="9Zsvd8ydGd5WaW7-rN7S-8" target="9Zsvd8ydGd5WaW7-rN7S-18">
          <mxGeometry relative="1" as="geometry" />
        </mxCell>
        <mxCell id="9Zsvd8ydGd5WaW7-rN7S-8" value="Menu Form" style="rounded=1;whiteSpace=wrap;html=1;" vertex="1" parent="1">
          <mxGeometry x="590" y="240" width="120" height="60" as="geometry" />
        </mxCell>
        <mxCell id="9Zsvd8ydGd5WaW7-rN7S-13" style="edgeStyle=orthogonalEdgeStyle;rounded=0;orthogonalLoop=1;jettySize=auto;html=1;entryX=0.576;entryY=0.027;entryDx=0;entryDy=0;entryPerimeter=0;" edge="1" parent="1" source="9Zsvd8ydGd5WaW7-rN7S-3" target="9Zsvd8ydGd5WaW7-rN7S-6">
          <mxGeometry relative="1" as="geometry" />
        </mxCell>
        <mxCell id="9Zsvd8ydGd5WaW7-rN7S-14" value="Select&lt;br&gt;District, City" style="whiteSpace=wrap;html=1;aspect=fixed;" vertex="1" parent="1">
          <mxGeometry x="140" y="610" width="80" height="80" as="geometry" />
        </mxCell>
        <mxCell id="9Zsvd8ydGd5WaW7-rN7S-15" value="Search" style="whiteSpace=wrap;html=1;aspect=fixed;" vertex="1" parent="1">
          <mxGeometry x="429" y="610" width="80" height="80" as="geometry" />
        </mxCell>
        <mxCell id="9Zsvd8ydGd5WaW7-rN7S-27" style="edgeStyle=orthogonalEdgeStyle;rounded=0;orthogonalLoop=1;jettySize=auto;html=1;entryX=0;entryY=0.5;entryDx=0;entryDy=0;dashed=1;dashPattern=8 8;" edge="1" parent="1" source="9Zsvd8ydGd5WaW7-rN7S-18" target="9Zsvd8ydGd5WaW7-rN7S-26">
          <mxGeometry relative="1" as="geometry" />
        </mxCell>
        <mxCell id="9Zsvd8ydGd5WaW7-rN7S-18" value="Payment Service" style="rounded=1;whiteSpace=wrap;html=1;" vertex="1" parent="1">
          <mxGeometry x="670" y="350" width="120" height="60" as="geometry" />
        </mxCell>
        <mxCell id="9Zsvd8ydGd5WaW7-rN7S-23" style="edgeStyle=orthogonalEdgeStyle;rounded=0;orthogonalLoop=1;jettySize=auto;html=1;entryX=0.5;entryY=1;entryDx=0;entryDy=0;" edge="1" parent="1" source="9Zsvd8ydGd5WaW7-rN7S-21" target="9Zsvd8ydGd5WaW7-rN7S-4">
          <mxGeometry relative="1" as="geometry" />
        </mxCell>
        <mxCell id="9Zsvd8ydGd5WaW7-rN7S-21" value="Yêu cầu&amp;nbsp;&lt;br&gt;nếu chưa&amp;nbsp;&lt;br&gt;đăng nhập" style="rhombus;whiteSpace=wrap;html=1;" vertex="1" parent="1">
          <mxGeometry x="865" y="315" width="125" height="130" as="geometry" />
        </mxCell>
        <mxCell id="9Zsvd8ydGd5WaW7-rN7S-22" style="edgeStyle=orthogonalEdgeStyle;rounded=0;orthogonalLoop=1;jettySize=auto;html=1;entryX=0;entryY=0.5;entryDx=0;entryDy=0;dashed=1;dashPattern=8 8;" edge="1" parent="1" source="9Zsvd8ydGd5WaW7-rN7S-18" target="9Zsvd8ydGd5WaW7-rN7S-21">
          <mxGeometry relative="1" as="geometry" />
        </mxCell>
        <mxCell id="9Zsvd8ydGd5WaW7-rN7S-30" style="edgeStyle=orthogonalEdgeStyle;rounded=0;orthogonalLoop=1;jettySize=auto;html=1;entryX=0.5;entryY=0;entryDx=0;entryDy=0;" edge="1" parent="1" source="9Zsvd8ydGd5WaW7-rN7S-26" target="9Zsvd8ydGd5WaW7-rN7S-29">
          <mxGeometry relative="1" as="geometry" />
        </mxCell>
        <mxCell id="9Zsvd8ydGd5WaW7-rN7S-26" value="(Option)&lt;br&gt;không cần đăng&amp;nbsp;&lt;br&gt;nhập" style="rhombus;whiteSpace=wrap;html=1;" vertex="1" parent="1">
          <mxGeometry x="865" y="495" width="115" height="115" as="geometry" />
        </mxCell>
        <mxCell id="9Zsvd8ydGd5WaW7-rN7S-32" style="edgeStyle=orthogonalEdgeStyle;rounded=0;orthogonalLoop=1;jettySize=auto;html=1;entryX=1;entryY=0.5;entryDx=0;entryDy=0;dashed=1;dashPattern=8 8;" edge="1" parent="1" source="9Zsvd8ydGd5WaW7-rN7S-29" target="9Zsvd8ydGd5WaW7-rN7S-31">
          <mxGeometry relative="1" as="geometry" />
        </mxCell>
        <mxCell id="9Zsvd8ydGd5WaW7-rN7S-41" value="s" style="edgeStyle=orthogonalEdgeStyle;rounded=0;orthogonalLoop=1;jettySize=auto;html=1;" edge="1" parent="1" source="9Zsvd8ydGd5WaW7-rN7S-29" target="9Zsvd8ydGd5WaW7-rN7S-39">
          <mxGeometry relative="1" as="geometry" />
        </mxCell>
        <mxCell id="9Zsvd8ydGd5WaW7-rN7S-29" value="POP UP&lt;br&gt;Thông tin&amp;nbsp;&lt;br&gt;Khách hàng" style="shape=process;whiteSpace=wrap;html=1;backgroundOutline=1;" vertex="1" parent="1">
          <mxGeometry x="855" y="670" width="135" height="90" as="geometry" />
        </mxCell>
        <mxCell id="9Zsvd8ydGd5WaW7-rN7S-31" value="Số điện thoại&lt;br&gt;Tên khách hàng&lt;br&gt;Địa chỉ" style="whiteSpace=wrap;html=1;aspect=fixed;" vertex="1" parent="1">
          <mxGeometry x="651" y="662.5" width="105" height="105" as="geometry" />
        </mxCell>
        <mxCell id="9Zsvd8ydGd5WaW7-rN7S-48" style="edgeStyle=orthogonalEdgeStyle;rounded=0;orthogonalLoop=1;jettySize=auto;html=1;" edge="1" parent="1" source="9Zsvd8ydGd5WaW7-rN7S-34" target="9Zsvd8ydGd5WaW7-rN7S-35">
          <mxGeometry relative="1" as="geometry" />
        </mxCell>
        <mxCell id="9Zsvd8ydGd5WaW7-rN7S-49" value="Admin" style="edgeLabel;html=1;align=center;verticalAlign=middle;resizable=0;points=[];" vertex="1" connectable="0" parent="9Zsvd8ydGd5WaW7-rN7S-48">
          <mxGeometry x="-0.389" y="-3" relative="1" as="geometry">
            <mxPoint as="offset" />
          </mxGeometry>
        </mxCell>
        <mxCell id="9Zsvd8ydGd5WaW7-rN7S-34" value="" style="sketch=0;outlineConnect=0;fontColor=#232F3E;gradientColor=none;fillColor=#232F3D;strokeColor=none;dashed=0;verticalLabelPosition=bottom;verticalAlign=top;align=center;html=1;fontSize=12;fontStyle=0;aspect=fixed;pointerEvents=1;shape=mxgraph.aws4.authenticated_user;" vertex="1" parent="1">
          <mxGeometry x="1261" y="10" width="78" height="78" as="geometry" />
        </mxCell>
        <mxCell id="9Zsvd8ydGd5WaW7-rN7S-45" style="edgeStyle=orthogonalEdgeStyle;rounded=0;orthogonalLoop=1;jettySize=auto;html=1;entryX=0.5;entryY=0;entryDx=0;entryDy=0;dashed=1;dashPattern=8 8;" edge="1" parent="1" source="9Zsvd8ydGd5WaW7-rN7S-35" target="9Zsvd8ydGd5WaW7-rN7S-36">
          <mxGeometry relative="1" as="geometry" />
        </mxCell>
        <mxCell id="9Zsvd8ydGd5WaW7-rN7S-46" style="edgeStyle=orthogonalEdgeStyle;rounded=0;orthogonalLoop=1;jettySize=auto;html=1;entryX=0.5;entryY=0;entryDx=0;entryDy=0;dashed=1;dashPattern=8 8;" edge="1" parent="1" source="9Zsvd8ydGd5WaW7-rN7S-35" target="9Zsvd8ydGd5WaW7-rN7S-37">
          <mxGeometry relative="1" as="geometry" />
        </mxCell>
        <mxCell id="9Zsvd8ydGd5WaW7-rN7S-47" style="edgeStyle=orthogonalEdgeStyle;rounded=0;orthogonalLoop=1;jettySize=auto;html=1;entryX=0.5;entryY=0;entryDx=0;entryDy=0;dashed=1;dashPattern=8 8;" edge="1" parent="1" source="9Zsvd8ydGd5WaW7-rN7S-35" target="9Zsvd8ydGd5WaW7-rN7S-38">
          <mxGeometry relative="1" as="geometry" />
        </mxCell>
        <mxCell id="9Zsvd8ydGd5WaW7-rN7S-35" value="Admin System &lt;br&gt;Form" style="rounded=1;whiteSpace=wrap;html=1;" vertex="1" parent="1">
          <mxGeometry x="1240" y="170" width="120" height="60" as="geometry" />
        </mxCell>
        <mxCell id="9Zsvd8ydGd5WaW7-rN7S-36" value="Xem audit" style="whiteSpace=wrap;html=1;aspect=fixed;" vertex="1" parent="1">
          <mxGeometry x="1247.5" y="380" width="105" height="105" as="geometry" />
        </mxCell>
        <mxCell id="9Zsvd8ydGd5WaW7-rN7S-37" value="CRUD món ăn" style="whiteSpace=wrap;html=1;aspect=fixed;" vertex="1" parent="1">
          <mxGeometry x="1380" y="285" width="105" height="105" as="geometry" />
        </mxCell>
        <mxCell id="9Zsvd8ydGd5WaW7-rN7S-38" value="CRUD Admin account" style="whiteSpace=wrap;html=1;aspect=fixed;" vertex="1" parent="1">
          <mxGeometry x="1530" y="360" width="105" height="105" as="geometry" />
        </mxCell>
        <mxCell id="9Zsvd8ydGd5WaW7-rN7S-43" style="edgeStyle=orthogonalEdgeStyle;rounded=0;orthogonalLoop=1;jettySize=auto;html=1;entryX=0;entryY=0.5;entryDx=0;entryDy=0;" edge="1" parent="1" source="9Zsvd8ydGd5WaW7-rN7S-39" target="9Zsvd8ydGd5WaW7-rN7S-35">
          <mxGeometry relative="1" as="geometry">
            <Array as="points">
              <mxPoint x="1118" y="200" />
            </Array>
          </mxGeometry>
        </mxCell>
        <mxCell id="9Zsvd8ydGd5WaW7-rN7S-39" value="(Sau khi submit)&lt;br&gt;Public event về&lt;br&gt;cho admin" style="rhombus;whiteSpace=wrap;html=1;" vertex="1" parent="1">
          <mxGeometry x="1050" y="305" width="150" height="135" as="geometry" />
        </mxCell>
      </root>
    </mxGraphModel>
  </diagram>
</mxfile>
